<svg id="Layer_1" data-name="Layer 1" xmlns="http://www.w3.org/2000/svg" viewBox="0 0 449.92 512.54"><defs><style>.cls-1{fill:#682575;}.cls-2{fill:#2d2c2c;}.cls-3{fill:#2e2e2f;}.cls-4{fill:#662574;}.cls-5{fill:#282829;}.cls-6{fill:#5e1c6c;}.cls-7{fill:none;}.cls-8{fill:#fff;}.cls-9{fill:#fcfcfc;}.cls-10{fill:#d03a32;}</style></defs><path class="cls-1" d="M609.87,561.19c-2.8-2.39-4.62-3.7-6.15-5.29-26.71-27.8-48.77-59-64.83-94-8.47-18.49-15.41-37.75-22-57-11.33-33-17.05-67.33-20.56-102-1.41-13.91-2.72-27.87-3-41.82-.52-23-.11-46-.26-68.93,0-5.6,1.79-9.36,7.26-11.52,16.69-6.57,33.19-13.59,49.92-20,21.69-8.37,44.49-12.76,67.23-16.8a458.25,458.25,0,0,1,56.47-6.68c25.26-1.28,50.65-1.59,75.93-.74,17.72.6,35.35,3.95,53,5.88,25.58,2.78,50.27,9.4,74.9,16.58a389.08,389.08,0,0,1,59.41,23.11c3.23,1.54,4.66,3.38,4.71,6.67.34,20.15,1.56,40.34.77,60.45-.88,22.44-3.59,44.8-5.51,67.19,0,.33,0,.66-.07,1-.93,9-.93,9-10.14,9.06-6,0-12,0-18,.31-3.52.2-4.62-.69-4.32-4.43,2.14-26.89,4.36-53.77,5.91-80.69.64-10.94-.44-22-.48-33,0-4.23-3.16-5.59-5.9-6.47-21.95-7.13-43.75-15-66.09-20.6-19.92-5-40.42-7.85-60.77-11-9.5-1.47-19.24-1.48-28.88-2a570.47,570.47,0,0,0-106.67,4,453.84,453.84,0,0,0-67.35,14.07c-15.28,4.49-30.18,10.32-45.1,15.95-1.88.71-4,3.83-4.06,5.86-.64,37-1.13,74.09,5,110.71,4,23.43,8.37,46.93,14.94,69.72,12.28,42.59,30.61,82.54,58.07,117.81a37.58,37.58,0,0,0,3.51,4.22c3.86,3.69,3.24,7.83,2.77,12.76-1,10.52-.68,21.17-.8,31.77C608.77,556.8,609.3,558.22,609.87,561.19Zm301.4-270.1-1.63.16c0,5.24.12,10.49,0,15.72-.08,2.59.51,4.16,3.07,5.42,3.39,1.66,6.64,3.9,6.43,8.66-3.81,1.7-8.64-.94-12.07,2,7.23.52,14.31.62,21.39.49,5.57-.11,6.87-2,5.49-7.22-1.5-.15-3.11.1-4.29-.51-5.08-2.63-10.06-5.45-15-8.35-.84-.5-2-2.26-1.72-2.59C916.64,299.58,910.5,295.85,911.27,291.09Zm23.84,18.82c.47-2.88,1.14-5.75,1.38-8.65.5-6.09.84-12.2,1.09-18.3a4,4,0,0,0-1.08-3,54.8,54.8,0,0,0-5.62-3.52l-6.76,1.94c1.45,2.54,4.51,5.4,4.19,7.79C927.08,295.14,933.66,301.74,935.11,309.91Zm5.08-100.62h-1v57.57h1ZM913.09,231h1V206.29h-1Zm26.06-25.11.79,0V188.28l-.79,0Zm-24.83,53.39-1,0V270.9l1,0Z" transform="translate(-493.02 -135.9)"/><path class="cls-2" d="M565.79,351.13c-6-4.31-9-9.93-11-16.16-5.6-17.59,5.16-37.91,20-46,9.67-5.26,20.41-8.58,30.8-12.43,4.06-1.5,7.2-2.66,8.31-7.8,1.46-6.78,6.9-11.2,12.43-15.05,9-6.28,19.33-9.25,29.77-12.24,25.59-7.34,52-6.88,78.17-9.48,18.05-1.8,36.29-2.47,54.11-5.58,17-3,33.48-8.63,46.86-20.57a28.2,28.2,0,0,1,3.22-2c-1.61,16.46-9.68,28.42-21.29,38.09s-25.8,14-40.23,17.65l-.21,1.38c1.33.89,2.54,2.26,4,2.59,29.56,6.77,53.83,23,76.15,42.62a35.09,35.09,0,0,1,3.31,3.79l-53.75-13.43-.87,2.16c18.39,10.39,36.66,21,54.3,35.22-65,3.54-121.65,25.44-173,64.08-2.17-13.51-5.46-25.33-14.28-36.24,0,2.81-.26,4.62,0,6.34,2.34,13.34,2.93,26.71-3.43,39-3.46,6.7-8.49,12.67-13.3,18.57-5.24,6.45-11,12.45-16.62,18.59a8.41,8.41,0,0,1-4.85,2.79c1.42-2.89,2.82-5.79,4.28-8.66,8.2-16.12,14.33-32.91,16.32-51,1.83-16.72-6-40.11-22.85-48.05a51,51,0,0,0-17.65-4.62c-10.19-.74-20.47-.2-30.78-.2a23.93,23.93,0,0,1,3.71-3.17c13.4-7.89,28.19-10.77,43.45-11.91,3.18-.24,6.36-.57,9.54-.85l0-1.46a67.21,67.21,0,0,0-7-1.21c-19.58-1.36-38.24,1.57-54.73,13C570.29,334.7,567.92,339.37,565.79,351.13Zm134.56-91.22-.77-1.3c-2.46.71-5,1.27-7.37,2.15-7.47,2.71-15.48,4.59-22.15,8.65-4.83,2.95-9.2,5.37-14.84,5.57-7.44.27-7.3.34-5.87,7.27,2,9.53,7.59,15.56,16.82,18.4a19,19,0,0,0,19.74-6.23c4.57-5.59,5-12.31,1.27-19-.61-1.1-1.11-2.27-1.69-3.48C690.54,267.7,697.3,265.94,700.35,259.91ZM596.87,299.15l6.49-5.94c-1.71-1.13-3.71-3.47-5.07-3.15-2.55.6-4.73,2.75-7.06,4.25Z" transform="translate(-493.02 -135.9)"/><path class="cls-3" d="M709.42,519.62q-1.09,4.43-2.17,8.85-.9,3.07-1.81,6.15c-.11.61-.22,1.21-.34,1.82-.11,1.06-.21,2.12-.32,3.18-.21,1.94-.41,3.87-.61,5.81q-1,5.09-1.93,10.18l-.09,23.06q1.36,12.48,2.71,25c.13,1.34.27,2.68.4,4,.27,1.06.53,2.13.8,3.2l.63,1.78.48,2.18c.17.61.33,1.22.5,1.82l1.29,3-.09.19c2.55,7.31,5.06,14.63,7.66,21.93.69,2,1.65,3.83,2.48,5.74l-.94.95c-4.72-3.19-9.67-6.1-14.13-9.64-13.2-10.46-25.84-21.63-32.27-37.75-3.1-7.77-5.94-16-6.72-24.26a194.77,194.77,0,0,1-.1-36.38c1.51-16.07,6.49-31.44,13.19-46.2,22.43-49.46,58.73-86.28,104.62-114.13a305.36,305.36,0,0,1,70.15-31.39c20.61-6.25,41.77-9.34,63-12.28,2-.28,4.15.21,6.59.37l-23.74,8.54-15,4.92-3,1.65-4,1.37-11.1,4.94L855.46,363l-2,1.16c-7.71,4.05-15.63,7.76-23.1,12.22-27.34,16.32-52.45,35.45-73.57,59.48-1.19,1.35-2.2,2.87-3.3,4.31l-4.17,5.34-2.2,2.89-2.9,3.91.08-.07q-2.58,3.61-5.18,7.22l-3.72,5.45q-2.8,4.37-5.63,8.71c-.51,1.05-1,2.1-1.52,3.15-.7,1.24-1.41,2.47-2.11,3.7-.37.73-.74,1.45-1.1,2.18q-1.9,3.48-3.83,6.94-1.44,3-2.87,5.91c-.26.71-.52,1.42-.77,2.13l-3.32,8.84-2.67,7.16c-.11.61-.23,1.23-.35,1.84C710.62,516.85,710,518.23,709.42,519.62Z" transform="translate(-493.02 -135.9)"/><path class="cls-4" d="M846.07,485.65l.64-1.56L866,449.63l2.8-5.94q7-17,13.94-34.09l1.2-3.87q1.32-4.07,2.65-8.13c.17-1,.35-2.07.52-3.11.44-1,.89-1.93,1.34-2.89l.45-1.88q2.7-9.95,5.39-19.9l.66-3.09.33-2.13c.16-.65.33-1.29.49-1.94L897,359.6l1.67-2.77,2.91-1.73,1.42-.64c8-2.55,16.09-5.14,24.17-7.62,1.36-.41,3.3-.9,4.18-.26s.89,2.74.58,4.05c-3.63,15.51-7,31.09-11.21,46.45a399.85,399.85,0,0,1-31.09,78.61c-30,57.75-72.08,105-124.59,143.16-11.41,8.29-23.49,15.66-35.21,23.53-2.75,1.84-4.31,1.11-5.09-1.88-2-7.7-4-15.41-6-23.12-.24-1-.51-1.89-.77-2.83-.12-1.31-.24-2.61-.35-3.92,1.43-1.2,2.79-2.5,4.31-3.59,2.06-1.48,4.25-2.8,6.38-4.2l5.32-3L736,598l-.07.08,13.8-9.34,0,.06,20.49-16.56,8.88-7.45,3.56-3.09,4.2-4,16.89-16.78c5.23-5.71,11-11,15.58-17.22C828.57,511.27,837.19,498.36,846.07,485.65Z" transform="translate(-493.02 -135.9)"/><path class="cls-5" d="M765.79,367.93l1.79-.68,2.07,1.33a14.82,14.82,0,0,1-2.48,3.22c-12.16,9.21-24.6,18.07-36.56,27.53-23.91,18.91-44,41.34-59.26,67.75a234.35,234.35,0,0,0-17.93,37.49c-4.55,12.68-7.72,26.05-7.75,39.81,0,7-.18,13.94.13,20.89.46,10.49,2.19,20.76,6.5,30.46a51.36,51.36,0,0,1,1.67,5.48,22.1,22.1,0,0,1-3.52-2c-5-4.6-10-9.22-15-13.92a48,48,0,0,1-14.69-29.7c-1.84-16.26-.8-32.64,4.62-48.44a188.91,188.91,0,0,1,38.43-64.93,275.86,275.86,0,0,1,82.55-63.72C753,375.24,759.33,371.48,765.79,367.93Z" transform="translate(-493.02 -135.9)"/><path class="cls-3" d="M765.79,367.93c-6.46,3.55-12.82,7.31-19.4,10.61a275.86,275.86,0,0,0-82.55,63.72,188.91,188.91,0,0,0-38.43,64.93C620,523,619,539.37,620.79,555.63a48,48,0,0,0,14.69,29.7c4.94,4.7,9.95,9.32,15,13.92a22.1,22.1,0,0,0,3.52,2,51.36,51.36,0,0,0-1.67-5.48c-4.31-9.7-6-20-6.5-30.46-.31-6.95-.15-13.92-.13-20.89,0-13.76,3.2-27.13,7.75-39.81a234.35,234.35,0,0,1,17.93-37.49c15.24-26.41,35.35-48.84,59.26-67.75,12-9.46,24.4-18.32,36.56-27.53a14.82,14.82,0,0,0,2.48-3.22l0,0,4-.84-1.07-1.41.18-1.69,8.73-3.3c2.3.78,5.37-3.51,7.1,1.07C767,372.91,748,387,729.78,402.31c-28.94,24.21-52.31,52.78-68,87.25-6.41,14.1-10.27,28.94-12.93,44.35-2.53,14.64-1.87,28.83.65,43.09,1.32,7.45,4,14.68,6.32,21.94a59,59,0,0,0,3.22,7l-1,.83c-3.07-2.09-6.29-4-9.18-6.29-11.92-9.5-23-19.72-28-34.81-3.92-11.94-4.26-24.15-2.52-36.49,5.65-40.05,27.18-71.41,54.58-99.51,25.48-26.13,55.4-45.86,88.56-60.83A20.69,20.69,0,0,1,765.79,367.93Z" transform="translate(-493.02 -135.9)"/><path class="cls-3" d="M788.52,362.44c-1.73-4.58-4.8-.29-7.1-1.07l19.91-8.5.93,2C798.91,359.39,793.38,360.37,788.52,362.44Z" transform="translate(-493.02 -135.9)"/><path class="cls-3" d="M772.69,364.67l-.18,1.69-2.74.37-1.32-.36Z" transform="translate(-493.02 -135.9)"/><path class="cls-3" d="M768.45,366.37l1.32.36-.15,1.88,0,0-2.07-1.33Z" transform="translate(-493.02 -135.9)"/><path class="cls-1" d="M911.27,291.09c-.77,4.76,5.37,8.49,1.64,13.8-.23.33.88,2.09,1.72,2.59,4.92,2.9,9.9,5.72,15,8.35,1.18.61,2.79.36,4.29.51,1.38,5.19.08,7.11-5.49,7.22-7.08.13-14.16,0-21.39-.49,3.43-3,8.26-.32,12.07-2,.21-4.76-3-7-6.43-8.66-2.56-1.26-3.15-2.83-3.07-5.42.17-5.23,0-10.48,0-15.72Z" transform="translate(-493.02 -135.9)"/><path class="cls-1" d="M935.11,309.91c-1.45-8.17-8-14.77-6.8-23.73.32-2.39-2.74-5.25-4.19-7.79l6.76-1.94A54.8,54.8,0,0,1,936.5,280a4,4,0,0,1,1.08,3c-.25,6.1-.59,12.21-1.09,18.3C936.25,304.16,935.58,307,935.11,309.91Z" transform="translate(-493.02 -135.9)"/><path class="cls-1" d="M940.19,209.29v57.57h-1V209.3Z" transform="translate(-493.02 -135.9)"/><ellipse class="cls-1" cx="420.56" cy="82.75" rx="0.69" ry="17.47"/><path class="cls-6" d="M939.15,205.9V188.31l.79,0v17.59Z" transform="translate(-493.02 -135.9)"/><path class="cls-1" d="M914.32,259.29v11.58l-1,0V259.31Z" transform="translate(-493.02 -135.9)"/><path class="cls-7" d="M700.35,259.91c-3.05,6-9.81,7.79-14.86,12,.58,1.21,1.08,2.38,1.69,3.48,3.74,6.72,3.3,13.44-1.27,19a19,19,0,0,1-19.74,6.23c-9.23-2.84-14.84-8.87-16.82-18.4-1.43-6.93-1.57-7,5.87-7.27,5.64-.2,10-2.62,14.84-5.57,6.67-4.06,14.68-5.94,22.15-8.65,2.4-.88,4.91-1.44,7.37-2.15Zm-40.22,27.42c1.12,5.84,10.19,9.73,16.21,7.29s8.83-8.21,7-14.69c-1.28-4.57-4.72-6.61-9.21-5.46C673.72,282.68,672.27,286.92,660.13,287.33Z" transform="translate(-493.02 -135.9)"/><path class="cls-8" d="M596.87,299.15l-5.64-4.84c2.33-1.5,4.51-3.65,7.06-4.25,1.36-.32,3.36,2,5.07,3.15Z" transform="translate(-493.02 -135.9)"/><path class="cls-9" d="M726.14,480.46c.7-1.23,1.41-2.46,2.11-3.7C727.54,478,726.84,479.23,726.14,480.46Z" transform="translate(-493.02 -135.9)"/><path class="cls-9" d="M717.57,497.62c.25-.71.51-1.42.77-2.13C718.08,496.2,717.82,496.91,717.57,497.62Z" transform="translate(-493.02 -135.9)"/><path class="cls-9" d="M707.17,614.81l-.48-2.18Z" transform="translate(-493.02 -135.9)"/><path class="cls-9" d="M888.48,391.6c-.45,1-.9,1.92-1.34,2.89C887.59,393.53,888,392.57,888.48,391.6Z" transform="translate(-493.02 -135.9)"/><path class="cls-9" d="M736,598l-2.41,1.86Z" transform="translate(-493.02 -135.9)"/><path class="cls-9" d="M895.31,364.6l-.33,2.13Z" transform="translate(-493.02 -135.9)"/><path class="cls-9" d="M709,619.62l-1.29-3Z" transform="translate(-493.02 -135.9)"/><path class="cls-9" d="M880.64,351.88l3-1.65Z" transform="translate(-493.02 -135.9)"/><path class="cls-9" d="M901.55,355.1l-2.91,1.73Z" transform="translate(-493.02 -135.9)"/><path class="cls-5" d="M769.62,368.61l.15-1.88,2.74-.37,1.07,1.41Z" transform="translate(-493.02 -135.9)"/><path class="cls-10" d="M660.13,287.33c12.14-.41,13.59-4.65,14-12.86,4.49-1.15,7.93.89,9.21,5.46,1.82,6.48-1.09,12.29-7,14.69S661.25,293.17,660.13,287.33Z" transform="translate(-493.02 -135.9)"/></svg>