<svg id="Layer_1" data-name="Layer 1" xmlns="http://www.w3.org/2000/svg" viewBox="0 0 559.08 668.89"><defs><style>.cls-1{fill:#491972;}.cls-2{fill:#282828;}.cls-3{fill:#2e1a47;}.cls-4{fill:none;}.cls-5{fill:#be1928;}</style></defs><path class="cls-1" d="M917,386.17q0-45.75,0-91.5c0-3.07.52-5.16,3.58-6.86,47.31-26.29,97.16-45.39,150.89-53.52,94.44-14.28,184.22-.3,268.85,44.6,5.45,2.88,10.79,6,16.26,8.81,2.39,1.23,3.24,2.92,3.24,5.58,0,54.32.77,108.67-.17,163-1.14,66.45-19.8,128-55.29,184.37-5.41,8.59-11.63,16.66-17.42,25-1.58,2.28-3.29,3.26-6.27,2.72-39.73-7.2-79.1-16-117.35-29-53.88-18.23-105.16-42.24-152.71-73.57-30.89-20.36-60.43-42.63-86.86-68.75a15.41,15.41,0,0,1-4.79-10c-2.72-25.26-1.56-50.61-1.87-75.93-.1-8.33,0-16.66,0-25Zm257.35-11c-7.3-2.88-14.48-6.15-22.38-7.16-2.6-1.28-5.17-3.68-7.74.11a17.37,17.37,0,0,0,1.11,20.5,20.84,20.84,0,0,0,33.64-2.88C1183.24,378.67,1182.44,376.84,1174.3,375.15Zm56-68.34c5.23,3.17,9.09,7.72,12.52,12.64a73,73,0,0,1,12,28.33c1.21,6.37,6.38,4.09,10,5,3.06.75,3.41-2.22,3.64-4.25,2.68-23.22-3-42.92-24.33-56.08-21.63-13.34-46-16-70.88-14.58-.69,0-1.19.54-1.38,2a80.6,80.6,0,0,0,21.77,12c4.51,1.57,9.4,2.19,10.71,8.26,1,4.71,2.93,9.23,4.8,14.88a16.65,16.65,0,0,1-3-1.5c-11.79-11.36-25.86-19.18-40.16-26.85-14.81-7.95-30.19-8.55-46.14-5.75-2,.34-4.43.32-5.36,3,1.4,2.29,3.79,1.79,5.8,2.09,7.78,1.15,15.41,2.77,22.6,6.1a13.75,13.75,0,0,1,5.25,3.73c1.7,2.15,2.37,4.51.25,6.76s-4.08.95-6-.7a24.57,24.57,0,0,0-14.49-6.15c-15.27-1.13-30.28-.07-44.83,5.26-26.68,9.77-48.45,27-69.53,45.32-1.29,1.13-2.86,2.36-2.33,5.68,14.71-3,28.29-9.86,43.09-12.53.29,2.64-1.13,3.41-2.26,4.31-5.34,4.26-10.66,8.55-16.08,12.7a231,231,0,0,0-35.73,33.38,22.54,22.54,0,0,0-5.19,9.08c13-7.66,24.52-15.64,38.79-17.73-9.45,8-20.85,13.18-29.33,22.33s-17,17.83-23.66,28.35c-9.44,15-15,27.68-14.59,35.15,16.12-31.15,38.05-54.9,69.19-70.45.19,3.83-2,4.9-3.41,6.4C1004.86,432,984.58,465,974.2,503.7c-3.35,12.52-4.8,9.25,6.07,17.2,9.78,7.16,9.72,7.07,14.82-4a599.69,599.69,0,0,1,37.45-68.34c1-1.6,1.6-4.18,4.32-3.58,1.17,1.49.42,2.55-.11,3.52-13.51,24.54-20.11,51.41-26.29,78.41-3.33,14.56-3.32,14.56,9.43,22.72.28.18.54.39.82.57,4.51,2.86,5.22,2.57,7.06-2.37,5.58-14.93,11-29.95,16.89-44.74,7.91-19.75,18.9-37.49,35.6-51.16,2-1.65,3.81-4.23,7-3.41a2.92,2.92,0,0,1-.94,2.94c-9.67,10.74-15.47,23.68-20.63,36.89-9.1,23.3-14.66,47.8-23.79,71.1-1,2.49-.17,4,2.17,5.25,3.56,1.83,7.09,3.74,10.44,5.91,3.53,2.28,5.58,1.68,7.21-2.28a223.45,223.45,0,0,1,13.52-26.75c15.41-26.62,34.3-50,61.78-65.17,1.46-.81,3-1.59,2.45-4.29-14.87-4.15-29.6-1.07-44.21,2.54-.76-3.05,1.24-3.89,2.53-5a91.35,91.35,0,0,1,31.76-17.48c1.21-.38,2.84-.27,3.25-1.9.49-1.95-1.24-2.51-2.4-3.35-6.82-4.91-12.17-11.36-18-17.27-.9-.91-2-1.91-.72-3.69,1,0,2.09,0,3.22,0a129.36,129.36,0,0,0,46.93-5.39c5.25-1.66,10.43-3.49,14.83-7a13.69,13.69,0,0,0,4.7-6.33c1.35-4-.64-6.29-4.74-5.4a56.66,56.66,0,0,0-5.69,1.9c-5.77,1.91-11.56,2.9-17.67,1.4-10.12-2.47-16.37-9.14-20.44-18.27-3.26-7.3-8.08-12.95-15.82-15.76-1.3-.48-3-.89-2.72-3.4a34.59,34.59,0,0,0,14.33-6.18c4.07-2.91,4-4.62-.45-7.17-7-4-14.2-7.38-22.54-7.34-1.22,0-2.76.19-3.38-1.58a2.76,2.76,0,0,1,2.11-1.76,34.29,34.29,0,0,1,15.35-.38c13,2.24,24.59,8.22,36.4,13.64,15.84,7.26,32.66,10.31,49.88,11.51,5.33.37,6.15-.69,5.52-6-.16-1.27-.85-2.61,1-3.71,3.48,1.53,3.26,5.32,4.57,8.15.82,1.77,1.43,3.41,3.89,2.85,5-1.13,9-9.22,6.84-14a97,97,0,0,0-8.09-14.27c-.87-1.26-2.52-2.41-.65-5.2,8,5.35,11.94,13.69,16.73,21.32,3.27-.38,5.62-2.52,8.46-3.38,3.3-1,4.29-3.14,3.85-6.49a63.12,63.12,0,0,0-5.24-17.14c-3.56-8.11-9.5-14.71-13.86-22.31C1229.43,307.82,1229.89,307.32,1230.34,306.81Zm53.83,225c1.36.24,1.73.43,2,.34,1.25-.42,2.49-.92,3.73-1.4a84.85,84.85,0,0,0,29.38-19.47c23.7-23.48,32.53-51.69,26.08-84.4a99.81,99.81,0,0,1-2.31-19.75q.15-48.24.26-96.48c0-6.33,0-6.32-6.13-5q-22.23,4.78-44.47,9.58c-2.43.53-4.48,1-5.35-2.36-2.81-11-9.93-19-18.17-26.3-8.69-7.74-19.18-12.56-28.87-18.7a211.42,211.42,0,0,0-56.93-25.14c-1.69-.47-3.41-1.57-5.28-.07-1.18,4.3,2.76,8.07,1.57,12.8-4.23,0-8.35,0-12.48,0-23.5.13-46.91,2.84-70.43,2.4-11.62-.22-22.85-2.27-33.35-7.57-1.11-.56-2.24-1.6-4-.59-.87,9.75,2.31,18.74,6.9,28.1-24.76,5.41-48.22,6.61-69.92-9.36-1.62,19.09,4,34.7,16.31,47.43-2,2.41-3.54,1.7-5,1.5C984.33,314,961,310.08,938,304.3c-3.67-.92-5.14-.43-5.12,3.77.19,42.83.11,85.66.38,128.49.07,12.81-.31,25.67,1.62,38.41.38,2.53.41,5.27,3,7.55.64-1.57,1.22-2.71,1.57-3.91,3-10.23,6.13-20.43,8.93-30.72,6.83-25.07,16.06-49.07,30.53-70.84a36,36,0,0,0,5-12.44,44.71,44.71,0,0,1,10.74-21.15c9.25-10.12,19.18-19.46,31.42-26,1.51-.81,3.59-1.22,3.64-4.39-5.56-2.22-11.28-4.92-15.61-9.64-4.54-4.95-7-10.7-6.77-18.92,26.54,12.28,51.59,3.36,77.07-2.07-5-6.11-11.55-10.53-13-19a13.19,13.19,0,0,1,2.43.14c14.66,4.44,29.61,4.13,44.63,2.86a630.4,630.4,0,0,1,66.92-1.61c3.24.07,6.39,1.8,9.66.72,1.21-3.57-2.64-6.3-1.27-9.79,3.64-.36,6.71,1.12,9.6,2.59A574.89,574.89,0,0,1,1261.89,293c7.32,4.9,12.16,12.18,15.6,20.37,5.39,12.86,5.71,26.23,4.48,39.8-.24,2.7-.68,5.27,2.41,6.92,10.42,5.54,19,13.47,27.22,21.76,18.23,18.33,27.37,40.29,26.18,66.27-1.3,28.28-13.84,50.29-37.32,66.06-1.54,1-3.08,2.74-5.76,1.44,0-6.17.23-12.49,0-18.78-.58-12.82-7.08-21.53-19-26.17a134.63,134.63,0,0,0-18.74-5.27c-8-1.83-14.76.62-20.77,5.84a39.4,39.4,0,0,0-8.56,11c-8.58,15.58-7.6,31.74-2.87,48.05,11.06,38.11,36.91,64.85,67.71,87.77,2.76,2.06,4.32,1.18,6.13-1.21,2.71-3.57.32-5.43-2.13-7.35-11.82-9.28-23.15-19.14-33.07-30.43-16.46-18.73-28.45-39.84-32-65-1.85-13,.34-24.92,10.24-34.52,3-2.94,6.45-4.74,10.78-4.07,6.75,1.05,13.48,2.22,19.93,4.61,7.2,2.67,11.6,7.71,12.63,15.36.53,3.95.64,8,.83,11.95A133,133,0,0,1,1284.17,531.77Zm-117-95.81c.9-2.72,2.17-2.69,3.29-2.83,16.91-2.21,33.89-3.35,50.82-1,23.19,3.17,44.32,13.12,66,21.25,6.56,2.46,10.11,8.36,12,15.13,2.18,7.81,2.57,15.74,2.26,23.78-.07,1.83-1,3.93,1.12,5.81a32.85,32.85,0,0,0,8.09-8c21.63-28.61,18.92-73.26-6-99.08-7.77-8.07-17.2-14.23-25.33-21.85-10.23-9.59-31-9.15-41.68,1.44-8.5,8.45-14.12,18.06-13.56,30.51.08,1.87.77,4-1.15,6-2-1-3.9-2.25-6-3.13-12.74-5.38-19.2-2.9-24.24,7.14A28.49,28.49,0,0,1,1177,425c-6.66,2.55-13.35,5.05-19.72,7.46-1,1.51,1.51,2,.18,3.5-6.1,1-12.45-1.53-19.2-.43,2.17,5.06,6.39,6,10.19,7.45,11.71,4.42,24,3.47,36.1,3.42,27.78-.12,55.29,1.57,82,10.18,2.4.78,4.86,1.39,7.29,2.08C1242,434.62,1205.17,432.87,1167.19,436Zm3.07,182.41c.78-2.36.37-4.86.1-7.3a332.82,332.82,0,0,1-1.71-46.4c.61-21.69,4.63-43,6.53-64.6.18-2,1.28-4.21-.41-6a2.67,2.67,0,0,0-2.85.91c-9.18,9.23-18,18.79-24.75,30-13.73,22.71-19.8,47.84-23,73.85-.41,3.3,1,4.9,3.94,5.92,12.57,4.45,25.09,9,37.64,13.46C1167,618.62,1168.2,619.27,1170.26,618.37Zm30.57-105.6c-1.53.92-1.85,2.26-2.3,3.49a116.08,116.08,0,0,0-7.39,35c-1.17,26.9,6.51,52,16.07,76.67a5.68,5.68,0,0,0,4.5,3.51c9.26,2.08,18.51,4.2,27.76,6.29a3,3,0,0,0,3-.48,3.5,3.5,0,0,0,.4-1.22c0-1.16-.16-2.32-.28-3.48a102.08,102.08,0,0,0-14.25-42.26c-13.52-22.58-22.43-46.76-25.52-73C1202.6,515.8,1202.83,514,1200.83,512.77Zm-43.29-20c-2.41.63-3.53.82-4.56,1.21-39.74,14.94-64.68,43.73-78.11,83.34-1,2.85.17,4.31,2.68,5.46,7,3.18,13.94,6.36,20.77,9.8,3.46,1.74,4.77.63,5.47-2.79a159.61,159.61,0,0,1,8.28-27.2c9.76-24.19,20.46-47.83,41.25-65.07A47.36,47.36,0,0,0,1157.54,492.74Z" transform="translate(-858.87 -173.3)"/><path class="cls-1" d="M859.51,430.76c-1-1.9-.51-3.94-.52-5.9q0-80.76-.12-161.51c0-3.78,1.09-6,4.33-8,69-44.4,144-72,225.87-79.65s161.25,3.4,237.67,34.33a488.58,488.58,0,0,1,87.18,46.24,7,7,0,0,1,3.51,6.56c-.11,63.84,1.59,127.74-.61,191.5-3,87.32-29.23,167.64-81.32,238.67-30.72,41.89-68.4,76.23-112.27,104-25.82,16.34-52.21,31.51-80.16,43.92-3.78,1.68-6.89,1.84-10.78,0-37.77-17.71-74.93-36.5-108.58-61.44a410.19,410.19,0,0,1-87.64-87.66c-26.69-36.56-44.31-77.51-58.16-120.28-.39-1.22-1.06-2.51-.09-3.9,2.35,0,3.24,2,4.51,3.39,9.59,10.21,19.29,20.29,30.43,28.85,2,1.52,2.9,3.58,3.78,5.74,29.53,72.56,79.58,127.68,144.55,170.15,23.22,15.18,48.18,27.13,72.9,39.52,2.37,1.18,4.4,1.63,7,.33,44-21.87,86.69-46.06,123.26-79.2,63.79-57.8,103.42-129.52,120.94-213.85,8.46-40.68,9-81.69,8.74-122.89-.22-41.66-.07-83.33.15-125,0-4.15-2-5.82-5-7.66-67-41.39-139.89-64.18-218.32-69.64-74.46-5.18-146.18,6.78-215.24,34.84-24,9.74-46.71,22-68.82,35.45-2.68,1.63-4.38,3.3-4.37,7q.35,84.5.28,169c0,4.77,1.2,9.54,0,14.31-2.44-.19-1.36,2.76-3,3.38-1.83-.08-1.94-2.78-3.92-2.61h0c-.42-3.23-1.6-5.91-5-7.05,0-.3-.05-.59-.1-.89a1.92,1.92,0,0,0-1.9-2.12c0-.29-.05-.59-.09-.88-.27-1.87-.7-3.62-2.9-4.12,0-.3-.05-.59-.09-.89C864,438.62,863.59,433.73,859.51,430.76Z" transform="translate(-858.87 -173.3)"/><path class="cls-2" d="M870.73,450.79c0,.3.08.59.1.89a10.83,10.83,0,0,0,5,7.05h0c.85,4,2.67,6.93,7.24,7.12.32,5.31,3.91,8.61,7.18,12.27,18.76,21,38.15,41.48,60,59.3a677,677,0,0,0,131.46,84.06,770.69,770.69,0,0,0,164.5,58.45c8.07,1.86,16.1,3.92,24.87,6.07-2.1,4.54-5,7.63-7.86,10.75-10.68,11.85-6.07,10.77-21.75,7.47-54.62-11.48-107.69-27.74-158.6-51-48.68-22.23-93.32-50.86-134.73-84.46-31.21-25.34-60-53.34-84.87-85.14-1.13-1.44-2.56-2.79-2.65-4.72-.68-14.27-2.2-28.53-.86-42.85,3.15,1.21,2.43,5.88,6,6.71,0,.3.07.59.09.89.18,1.92.55,3.72,2.9,4.12,0,.29.07.59.09.89A1.79,1.79,0,0,0,870.73,450.79Z" transform="translate(-858.87 -173.3)"/><path class="cls-2" d="M864.43,501.58c99.41,116.94,226.47,185.52,375.11,214.94.59,3.31-1.11,4.15-2.23,5.26-8.87,8.86-19,16.14-29,23.66a8.2,8.2,0,0,1-7.85,1.43,693.15,693.15,0,0,1-175-74.59c-43.16-25.86-81.57-57.43-117.83-92-11.83-11.27-23-23.13-34.53-34.7a14.07,14.07,0,0,1-4.12-7.77c-1.82-10.5-3.79-21-5.62-31.48C863.12,505,862.5,503.43,864.43,501.58Z" transform="translate(-858.87 -173.3)"/><path class="cls-2" d="M1182.5,760.11c0,1.9-1.53,2.37-2.83,3.08-12.74,6.93-26.21,12.25-39.54,17.91-2.1.89-3.86.35-5.76-.32-47.91-17.15-88.41-45.15-121.57-83.65-8-9.31-14.95-19.55-22.32-29.4-.91-1.21-2.8-2.58-1.19-4.29,1.89-2,3.35.17,4.64,1.15a361.19,361.19,0,0,0,33,22.17c14,8.31,28.43,15.88,42.67,23.77a609.05,609.05,0,0,0,109.66,47.55C1180.49,758.46,1182,758.56,1182.5,760.11Z" transform="translate(-858.87 -173.3)"/><path class="cls-3" d="M883,465.85c-4.57-.19-6.39-3.16-7.24-7.12,2-.17,2.09,2.53,3.92,2.61,1.61-.62.53-3.57,3-3.38C883.07,460.58,883.54,463.19,883,465.85Z" transform="translate(-858.87 -173.3)"/><path class="cls-3" d="M865.75,442.78c-3.57-.83-2.85-5.5-6-6.71-.24-1.76-.89-3.51-.24-5.31C863.59,433.73,864,438.62,865.75,442.78Z" transform="translate(-858.87 -173.3)"/><path class="cls-4" d="M1284.17,531.77a133,133,0,0,0,1.53-24.4c-.19-4-.3-8-.83-11.95-1-7.65-5.43-12.69-12.63-15.36-6.45-2.39-13.18-3.56-19.93-4.61-4.33-.67-7.74,1.13-10.78,4.07-9.9,9.6-12.09,21.55-10.24,34.52,3.57,25.12,15.56,46.23,32,65,9.92,11.29,21.25,21.15,33.07,30.43,2.45,1.92,4.84,3.78,2.13,7.35-1.81,2.39-3.37,3.27-6.13,1.21-30.8-22.92-56.65-49.66-67.71-87.77-4.73-16.31-5.71-32.47,2.87-48.05a39.4,39.4,0,0,1,8.56-11c6-5.22,12.73-7.67,20.77-5.84a134.63,134.63,0,0,1,18.74,5.27c12,4.64,18.46,13.35,19,26.17.28,6.29,0,12.61,0,18.78,2.68,1.3,4.22-.41,5.76-1.44,23.48-15.77,36-37.78,37.32-66.06,1.19-26-8-47.94-26.18-66.27-8.25-8.29-16.8-16.22-27.22-21.76-3.09-1.65-2.65-4.22-2.41-6.92,1.23-13.57.91-26.94-4.48-39.8-3.44-8.19-8.28-15.47-15.6-20.37a574.89,574.89,0,0,0-58.44-34.61c-2.89-1.47-6-3-9.6-2.59-1.37,3.49,2.48,6.22,1.27,9.79-3.27,1.08-6.42-.65-9.66-.72a630.4,630.4,0,0,0-66.92,1.61c-15,1.27-30,1.58-44.63-2.86a13.19,13.19,0,0,0-2.43-.14c1.46,8.45,8,12.87,13,19-25.48,5.43-50.53,14.35-77.07,2.07-.2,8.22,2.23,14,6.77,18.92,4.33,4.72,10,7.42,15.61,9.64,0,3.17-2.13,3.58-3.64,4.39-12.24,6.55-22.17,15.89-31.42,26A44.71,44.71,0,0,0,984,364.61a36,36,0,0,1-5,12.44c-14.47,21.77-23.7,45.77-30.53,70.84-2.8,10.29-5.92,20.49-8.93,30.72-.35,1.2-.93,2.34-1.57,3.91-2.61-2.28-2.64-5-3-7.55-1.93-12.74-1.55-25.6-1.62-38.41-.27-42.83-.19-85.66-.38-128.49,0-4.2,1.45-4.69,5.12-3.77,23,5.78,46.31,9.66,69.74,13,1.41.2,3,.91,5-1.5-12.36-12.73-17.93-28.34-16.31-47.43,21.7,16,45.16,14.77,69.92,9.36-4.59-9.36-7.77-18.35-6.9-28.1,1.76-1,2.89,0,4,.59,10.5,5.3,21.73,7.35,33.35,7.57,23.52.44,46.93-2.27,70.43-2.4,4.13,0,8.25,0,12.48,0,1.19-4.73-2.75-8.5-1.57-12.8,1.87-1.5,3.59-.4,5.28.07a211.42,211.42,0,0,1,56.93,25.14c9.69,6.14,20.18,11,28.87,18.7,8.24,7.33,15.36,15.33,18.17,26.3.87,3.4,2.92,2.89,5.35,2.36q22.23-4.83,44.47-9.58c6.15-1.33,6.15-1.34,6.13,5q-.12,48.24-.26,96.48a99.81,99.81,0,0,0,2.31,19.75c6.45,32.71-2.38,60.92-26.08,84.4a84.85,84.85,0,0,1-29.38,19.47c-1.24.48-2.48,1-3.73,1.4C1285.9,532.2,1285.53,532,1284.17,531.77Z" transform="translate(-858.87 -173.3)"/><path class="cls-4" d="M1167.19,436c38-3.09,74.76-1.34,106.63,22.71-2.43-.69-4.89-1.3-7.29-2.08-26.68-8.61-54.19-10.3-82-10.18-12.12,0-24.39,1-36.1-3.42-3.8-1.43-8-2.39-10.19-7.45,6.75-1.1,13.1,1.39,19.2.43,1.33-1.47-1.2-2-.18-3.5,6.37-2.41,13.06-4.91,19.72-7.46a28.49,28.49,0,0,0,15.8-13.89c5-10,11.5-12.52,24.24-7.14,2.08.88,4,2.09,6,3.13,1.92-2,1.23-4.15,1.15-6-.56-12.45,5.06-22.06,13.56-30.51,10.64-10.59,31.45-11,41.68-1.44,8.13,7.62,17.56,13.78,25.33,21.85,24.9,25.82,27.61,70.47,6,99.08a32.85,32.85,0,0,1-8.09,8c-2.15-1.88-1.19-4-1.12-5.81.31-8-.08-16-2.26-23.78-1.89-6.77-5.44-12.67-12-15.13-21.64-8.13-42.77-18.08-66-21.25-16.93-2.31-33.91-1.17-50.82,1C1169.36,433.27,1168.09,433.24,1167.19,436Zm66.49-26.26c2.25.18,3-1.34,3.94-2.38a28.11,28.11,0,0,1,15.68-9c1.74-.36,3.78-.49,4-2.93a5.41,5.41,0,0,0-2.88-5.4,8.93,8.93,0,0,0-7.67-.7C1239.62,391.51,1233,401.66,1233.68,409.7Z" transform="translate(-858.87 -173.3)"/><path class="cls-4" d="M1170.26,618.37c-2.06.9-3.3.25-4.53-.19-12.55-4.48-25.07-9-37.64-13.46-2.9-1-4.35-2.62-3.94-5.92,3.22-26,9.29-51.14,23-73.85,6.76-11.19,15.57-20.75,24.75-30a2.67,2.67,0,0,1,2.85-.91c1.69,1.8.59,4,.41,6-1.9,21.56-5.92,42.91-6.53,64.6a332.82,332.82,0,0,0,1.71,46.4C1170.63,613.51,1171,616,1170.26,618.37Z" transform="translate(-858.87 -173.3)"/><path class="cls-4" d="M1200.83,512.77c2,1.2,1.77,3,2,4.58,3.09,26.23,12,50.41,25.52,73a102.08,102.08,0,0,1,14.25,42.26c.12,1.16.26,2.32.28,3.48a3.5,3.5,0,0,1-.4,1.22,3,3,0,0,1-3,.48c-9.25-2.09-18.5-4.21-27.76-6.29a5.68,5.68,0,0,1-4.5-3.51c-9.56-24.68-17.24-49.77-16.07-76.67a116.08,116.08,0,0,1,7.39-35C1199,515,1199.3,513.69,1200.83,512.77Z" transform="translate(-858.87 -173.3)"/><path class="cls-4" d="M1157.54,492.74a47.36,47.36,0,0,1-4.22,4.75c-20.79,17.24-31.49,40.88-41.25,65.07a159.61,159.61,0,0,0-8.28,27.2c-.7,3.42-2,4.53-5.47,2.79-6.83-3.44-13.8-6.62-20.77-9.8-2.51-1.15-3.64-2.61-2.68-5.46,13.43-39.61,38.37-68.4,78.11-83.34C1154,493.56,1155.13,493.37,1157.54,492.74Z" transform="translate(-858.87 -173.3)"/><path class="cls-4" d="M1174.3,375.15c8.14,1.69,8.94,3.52,4.63,10.57a20.84,20.84,0,0,1-33.64,2.88,17.37,17.37,0,0,1-1.11-20.5c2.57-3.79,5.14-1.39,7.74-.11q-.7,2.36-1.4,4.73c-2,6.95,1,13.2,7.44,15,6.84,2,13-1.41,15.12-8.32C1173.52,378,1173.89,376.58,1174.3,375.15Z" transform="translate(-858.87 -173.3)"/><path class="cls-5" d="M1174.3,375.15c-.41,1.43-.78,2.86-1.22,4.28-2.14,6.91-8.28,10.28-15.12,8.32-6.39-1.83-9.48-8.08-7.44-15q.69-2.37,1.4-4.73C1159.82,369,1167,372.27,1174.3,375.15Z" transform="translate(-858.87 -173.3)"/><path class="cls-3" d="M875.8,458.73a10.83,10.83,0,0,1-5-7.05C874.2,452.82,875.38,455.5,875.8,458.73Z" transform="translate(-858.87 -173.3)"/><path class="cls-3" d="M868.74,447.79c-2.35-.4-2.72-2.2-2.9-4.12C868,444.17,868.47,445.92,868.74,447.79Z" transform="translate(-858.87 -173.3)"/><path class="cls-3" d="M870.73,450.79a1.79,1.79,0,0,1-1.9-2.11A1.91,1.91,0,0,1,870.73,450.79Z" transform="translate(-858.87 -173.3)"/><path class="cls-1" d="M1229,308.33c-.69-.55-.92-1.2-.16-1.82.55-.45,1.1-.17,1.53.31Z" transform="translate(-858.87 -173.3)"/><path class="cls-1" d="M1233.68,409.7c-.66-8,5.94-18.19,13.1-20.43a8.93,8.93,0,0,1,7.67.7,5.41,5.41,0,0,1,2.88,5.4c-.25,2.44-2.29,2.57-4,2.93a28.11,28.11,0,0,0-15.68,9C1236.69,408.36,1235.93,409.88,1233.68,409.7Z" transform="translate(-858.87 -173.3)"/></svg>